<svg width="17" height="17" viewBox="0 0 17 17" fill="none" xmlns="http://www.w3.org/2000/svg">
<path fill-rule="evenodd" clip-rule="evenodd" d="M9.23571 14.7399C10.4671 14.0844 14.1342 11.8226 14.1342 8.12953C14.1342 5.20452 11.763 2.83333 8.83795 2.83333C5.91294 2.83333 3.54175 5.20452 3.54175 8.12953C3.54175 11.8226 7.20882 14.0844 8.4402 14.7399C8.69165 14.8737 8.98426 14.8737 9.23571 14.7399ZM8.83787 10.3993C10.0914 10.3993 11.1077 9.38309 11.1077 8.12951C11.1077 6.87593 10.0914 5.85971 8.83787 5.85971C7.58429 5.85971 6.56806 6.87593 6.56806 8.12951C6.56806 9.38309 7.58429 10.3993 8.83787 10.3993Z" fill="#222222"/>
</svg>
