<svg width="15" height="15" viewBox="0 0 15 15" fill="none" xmlns="http://www.w3.org/2000/svg">
<path fill-rule="evenodd" clip-rule="evenodd" d="M6.25 0.125C4.59315 0.125 3.25 1.46815 3.25 3.125C3.25 3.16233 3.25068 3.1995 3.25203 3.2365C3.18055 3.26284 3.11579 3.2954 3.05554 3.33566C2.91905 3.42686 2.80186 3.54405 2.71066 3.68054C2.5 3.99582 2.5 4.43471 2.5 5.3125V11.25C2.5 12.4285 2.5 13.0178 2.86612 13.3839C3.23223 13.75 3.82149 13.75 5 13.75H10C11.1785 13.75 11.7678 13.75 12.1339 13.3839C12.5 13.0178 12.5 12.4285 12.5 11.25V5.3125C12.5 4.43471 12.5 3.99582 12.2893 3.68054C12.1981 3.54405 12.081 3.42686 11.9445 3.33566C11.8842 3.2954 11.8194 3.26284 11.748 3.2365C11.7493 3.1995 11.75 3.16233 11.75 3.125C11.75 1.46815 10.4069 0.125 8.75 0.125H6.25ZM5.875 3.125C5.875 2.57272 6.32272 2.125 6.875 2.125H8.125C8.67729 2.125 9.125 2.57272 9.125 3.125C9.125 3.67728 8.67729 4.125 8.125 4.125H6.875C6.32272 4.125 5.875 3.67728 5.875 3.125ZM5.625 6.5C5.07271 6.5 4.625 6.94771 4.625 7.5C4.625 8.05228 5.07271 8.5 5.625 8.5H9.375C9.92728 8.5 10.375 8.05228 10.375 7.5C10.375 6.94771 9.92728 6.5 9.375 6.5H5.625ZM5.625 9C5.07271 9 4.625 9.44771 4.625 10C4.625 10.5523 5.07271 11 5.625 11H8.125C8.67728 11 9.125 10.5523 9.125 10C9.125 9.44772 8.67728 9 8.125 9H5.625Z" fill="#222222"/>
</svg>
