<svg width="20" height="20" viewBox="0 0 20 20" fill="none" xmlns="http://www.w3.org/2000/svg">
<path fill-rule="evenodd" clip-rule="evenodd" d="M4.75245 3.91911C4.16667 4.5049 4.16667 5.44771 4.16667 7.33333V13.5C4.16667 15.3856 4.16667 16.3284 4.75245 16.9142C5.33824 17.5 6.28105 17.5 8.16667 17.5H11.8333C13.719 17.5 14.6618 17.5 15.2475 16.9142C15.8333 16.3284 15.8333 15.3856 15.8333 13.5V7.33333C15.8333 5.44771 15.8333 4.5049 15.2475 3.91911C14.6618 3.33333 13.719 3.33333 11.8333 3.33333H8.16667C6.28105 3.33333 5.33824 3.33333 4.75245 3.91911ZM7.5 6.49999C6.94771 6.49999 6.5 6.94771 6.5 7.49999C6.5 8.05228 6.94771 8.49999 7.5 8.49999H12.5C13.0523 8.49999 13.5 8.05228 13.5 7.49999C13.5 6.94771 13.0523 6.49999 12.5 6.49999H7.5ZM7.5 9.83333C6.94771 9.83333 6.5 10.281 6.5 10.8333C6.5 11.3856 6.94771 11.8333 7.5 11.8333H12.5C13.0523 11.8333 13.5 11.3856 13.5 10.8333C13.5 10.281 13.0523 9.83333 12.5 9.83333H7.5ZM7.5 13.1667C6.94771 13.1667 6.5 13.6144 6.5 14.1667C6.5 14.7189 6.94771 15.1667 7.5 15.1667H10.8333C11.3856 15.1667 11.8333 14.7189 11.8333 14.1667C11.8333 13.6144 11.3856 13.1667 10.8333 13.1667H7.5Z" fill="#265B55"/>
</svg>
