<svg width="20" height="20" viewBox="0 0 20 20" fill="none" xmlns="http://www.w3.org/2000/svg">
<path fill-rule="evenodd" clip-rule="evenodd" d="M4.39538 8.43848C4.16667 8.93576 4.16667 9.50149 4.16667 10.633V14.1666C4.16667 15.738 4.16667 16.5236 4.65482 17.0118C5.07842 17.4354 5.72605 17.4914 6.91667 17.4988V13.3333C6.91667 12.3208 7.73748 11.5 8.75 11.5H11.25C12.2625 11.5 13.0833 12.3208 13.0833 13.3333V17.4988C14.274 17.4914 14.9216 17.4354 15.3452 17.0118C15.8333 16.5236 15.8333 15.738 15.8333 14.1666V10.633C15.8333 9.50149 15.8333 8.93576 15.6046 8.43848C15.3759 7.94119 14.9464 7.57302 14.0873 6.83667L13.254 6.12239C11.7012 4.79145 10.9248 4.12598 10 4.12598C9.07519 4.12598 8.29881 4.79145 6.74604 6.12239L5.91271 6.83667C5.05364 7.57302 4.6241 7.94119 4.39538 8.43848ZM11.0833 17.4999V13.5H8.91667V17.4999H11.0833Z" fill="#222222"/>
</svg>
