<svg width="17" height="17" viewBox="0 0 17 17" fill="none" xmlns="http://www.w3.org/2000/svg">
<path d="M1.41667 6.375C1.41667 5.59931 1.41667 5.21146 1.52281 4.89879C1.72267 4.31 2.18501 3.84767 2.77379 3.6478C3.08647 3.54166 3.47431 3.54166 4.25 3.54166H12.75C13.5257 3.54166 13.9135 3.54166 14.2262 3.6478C14.815 3.84767 15.2773 4.31 15.4772 4.89879C15.5833 5.21146 15.5833 5.59931 15.5833 6.375C15.5833 6.56892 15.5833 6.66588 15.5568 6.74405C15.5068 6.89125 15.3912 7.00683 15.2441 7.0568C15.1659 7.08333 15.0689 7.08333 14.875 7.08333H2.125C1.93108 7.08333 1.83412 7.08333 1.75595 7.0568C1.60875 7.00683 1.49317 6.89125 1.4432 6.74405C1.41667 6.66588 1.41667 6.56892 1.41667 6.375Z" fill="#222222"/>
<path d="M1.41667 11.5833C1.41667 13.469 1.41667 14.4118 2.00245 14.9975C2.58824 15.5833 3.53105 15.5833 5.41667 15.5833H11.5833C13.4689 15.5833 14.4118 15.5833 14.9975 14.9975C15.5833 14.4118 15.5833 13.469 15.5833 11.5833V9.5C15.5833 9.0286 15.5833 8.7929 15.4369 8.64645C15.2904 8.5 15.0547 8.5 14.5833 8.5H2.41667C1.94526 8.5 1.70956 8.5 1.56311 8.64645C1.41667 8.7929 1.41667 9.0286 1.41667 9.5V11.5833Z" fill="#222222"/>
<path d="M4.95833 2.125L4.95833 4.25" stroke="#222222" stroke-width="2" stroke-linecap="round"/>
<path d="M12.0417 2.125L12.0417 4.25" stroke="#222222" stroke-width="2" stroke-linecap="round"/>
</svg>
