<svg width="21" height="21" viewBox="0 0 21 21" fill="none" xmlns="http://www.w3.org/2000/svg">
<g clip-path="url(#clip0_281_811)">
<path d="M10.0238 18.9128H10.2778C13.1984 18.9128 16.119 18.9128 19.1032 18.9128C19.1667 18.9128 19.2937 18.9128 19.4206 18.9128C19.6746 18.9763 19.8651 19.1668 19.8651 19.4208C19.8651 19.6747 19.6746 19.9287 19.4206 19.9287C19.3571 19.9287 19.2937 19.9287 19.1667 19.9287C15.2302 19.9287 11.2937 19.9287 7.35715 19.9287C6.0873 19.9287 5.00794 19.4842 4.11905 18.5954C3.42064 17.8969 2.72222 17.262 2.0873 16.5636C0.626987 14.9763 0.690479 12.4366 2.21429 10.9128C4.81746 8.30964 7.42064 5.64298 10.0873 3.0398C10.5952 2.53187 11.0397 2.08742 11.5476 1.57949C12.373 0.81758 13.4524 0.81758 14.2143 1.57949C15.9921 3.35726 17.7064 5.07155 19.4206 6.84933C20.1825 7.61123 20.1825 8.6906 19.4206 9.4525C16.373 12.5636 13.3254 15.6112 10.2143 18.7223C10.1508 18.7858 10.0873 18.8493 10.0238 18.9128ZM5.19842 9.32552C7.35715 11.4842 9.51588 13.5795 11.6746 15.7382C11.6746 15.7382 11.7381 15.6747 11.8016 15.6112C14.0873 13.3255 16.373 11.0398 18.5952 8.81758C19.0397 8.37314 19.0397 8.05568 18.5952 7.61123C16.881 5.89694 15.1032 4.11917 13.3889 2.40488C13.0079 2.02393 12.5635 2.08742 12.246 2.40488C10.0238 4.6271 7.67461 6.91282 5.38889 9.19853C5.38889 9.26202 5.3254 9.26202 5.19842 9.32552ZM10.7857 16.5001C8.69048 14.4049 6.59524 12.3096 4.43651 10.1509C3.92857 10.6588 3.42064 11.1668 2.97619 11.6112C1.76984 12.8811 1.76984 14.7858 2.97619 16.0557C3.61111 16.6906 4.24603 17.3255 4.94445 17.9604C6.0873 19.1033 7.92857 19.2303 9.13492 18.1509C9.70635 17.7065 10.2143 17.0715 10.7857 16.5001Z" fill="#265B55" stroke="#265B55" stroke-width="0.5" stroke-miterlimit="10"/>
</g>
<defs>
<clipPath id="clip0_281_811">
<rect width="20" height="20" fill="white" transform="translate(0.5 0.5)"/>
</clipPath>
</defs>
</svg>
