<svg width="17" height="17" viewBox="0 0 17 17" fill="none" xmlns="http://www.w3.org/2000/svg">
<g clip-path="url(#clip0_281_2543)">
<path d="M16.5953 8.82666C16.5036 9.10198 16.374 9.36111 16.1528 9.56625C15.8667 9.82538 15.5375 9.96575 15.149 9.97114H14.8845V14.819C14.8845 15.6666 14.3448 16.3522 13.5299 16.5466C13.3896 16.579 13.2385 16.5952 13.0928 16.5952H10.621C10.2648 16.5952 10.0705 16.4062 10.0705 16.0499C10.0705 14.8352 10.0544 13.6206 10.0705 12.4059C10.0813 11.8768 9.71975 11.4773 9.15308 11.4989C8.71054 11.5151 8.268 11.4989 7.82546 11.4989C7.27499 11.4989 6.95118 11.8228 6.95118 12.3789V16.0067C6.95118 16.417 6.77848 16.5952 6.36292 16.5952H3.96673C2.90356 16.5952 2.1534 15.8448 2.148 14.7812V9.99274C1.96991 9.97654 1.79181 9.97654 1.62451 9.94415C1.05785 9.83618 0.674671 9.50147 0.491179 8.95622C0.307687 8.42177 0.42102 7.9251 0.788004 7.49322C0.836576 7.43923 0.890544 7.38525 0.939115 7.33126C3.0007 5.26902 5.06769 3.20138 7.12927 1.13914C7.43689 0.836818 7.72292 0.529101 8.14388 0.399536H8.90483C9.30419 0.529101 9.59023 0.809825 9.87626 1.10135C11.9055 3.1366 13.9401 5.17184 15.9747 7.1963C16.2499 7.46622 16.4928 7.74695 16.6007 8.13024V8.82666H16.5953ZM11.0258 15.6396H11.2201C11.8245 15.6396 12.4236 15.6234 13.0226 15.6396C13.5515 15.6612 13.9509 15.2887 13.9401 14.7165C13.9239 12.9997 13.9401 11.283 13.9401 9.56625C13.9401 9.19915 14.129 9.0156 14.4959 9.01021H15.1597C15.3756 9.01021 15.5267 8.89144 15.6239 8.70249C15.7156 8.50814 15.694 8.32459 15.5699 8.15184C15.5213 8.08706 15.4674 8.03307 15.408 7.97908C13.2709 5.84126 11.1391 3.70884 9.00197 1.57102C8.65118 1.22011 8.38673 1.22011 8.03054 1.57102C6.08769 3.51449 4.13943 5.46337 2.19658 7.40684C1.97531 7.62818 1.74864 7.85492 1.52737 8.08166C1.36007 8.25441 1.3115 8.45955 1.40324 8.68089C1.49499 8.90224 1.67308 9.01021 1.91594 9.0156H2.50419C2.92515 9.0156 3.10324 9.18836 3.10324 9.60944C3.10324 11.31 3.11404 13.0105 3.10324 14.7111C3.10324 15.3211 3.5188 15.6666 4.0315 15.645C4.63054 15.618 5.23499 15.645 5.83404 15.645H6.02292V15.4399C6.02292 14.3602 6.01213 13.2858 6.02292 12.2115C6.03372 11.3802 6.71372 10.6352 7.54483 10.5812C8.19784 10.538 8.85086 10.5704 9.50388 10.5812C9.55245 10.5812 9.59562 10.592 9.64419 10.6028C10.4753 10.7917 11.0204 11.4719 11.0258 12.3357C11.0258 13.3722 11.0258 14.4033 11.0258 15.4399V15.6396Z" fill="#C5C7CD" stroke="#C5C7CD" stroke-width="0.5" stroke-miterlimit="10"/>
</g>
<defs>
<clipPath id="clip0_281_2543">
<rect width="17" height="17" fill="white"/>
</clipPath>
</defs>
</svg>
