<svg width="32" height="31" viewBox="0 0 32 31" fill="none" xmlns="http://www.w3.org/2000/svg">
<rect width="32" height="30.33" rx="4" fill="#265B55"/>
<g clip-path="url(#clip0_182_477)">
<path d="M26 17.72C25.97 17.82 25.94 17.93 25.91 18.03C25.67 18.78 24.99 19.29 24.2 19.32C24.12 19.32 24.03 19.32 23.95 19.32C19.76 19.32 15.57 19.32 11.38 19.32C10.46 19.32 9.83 18.91 9.44 18.13C9.32 17.9 9.34 17.59 9.34 17.31C9.34 14.21 9.34 11.1 9.34 8C9.34 7.87 9.34 7.74 9.36 7.61C9.46 6.74 10.22 6.04 11.11 6C11.2 6 11.29 6 11.38 6C15.57 6 19.75 6 23.94 6C25.05 6 25.7 6.5 25.98 7.57C25.98 7.58 26 7.59 26 7.6V17.72ZM16.37 14.66C16.65 14.33 16.91 14.02 17.17 13.7C17.92 12.8 18.66 11.91 19.41 11.01C19.82 10.51 20.34 10.32 20.97 10.45C21.35 10.53 21.6 10.8 21.84 11.08C22.76 12.15 23.68 13.23 24.6 14.3C24.64 14.35 24.68 14.39 24.75 14.47V14.28C24.75 12.17 24.75 10.06 24.75 7.95C24.75 7.49 24.5 7.25 24.03 7.25C19.79 7.25 15.54 7.25 11.3 7.25C10.82 7.25 10.58 7.49 10.58 7.97C10.58 10.7 10.58 13.43 10.58 16.15C10.58 16.2 10.58 16.26 10.59 16.34C10.66 16.27 10.71 16.23 10.75 16.19C11.58 15.36 12.42 14.52 13.25 13.69C13.57 13.37 13.95 13.2 14.41 13.23C14.81 13.25 15.13 13.42 15.41 13.7C15.72 14.02 16.04 14.33 16.37 14.66ZM10.78 17.91C10.97 18.09 11.16 18.09 11.35 18.09C15.56 18.09 19.76 18.09 23.97 18.09C24.02 18.09 24.07 18.09 24.13 18.09C24.5 18.08 24.75 17.83 24.76 17.46C24.76 17.2 24.75 16.94 24.76 16.68C24.77 16.5 24.71 16.36 24.59 16.23C23.34 14.79 22.11 13.34 20.86 11.89C20.62 11.62 20.55 11.62 20.32 11.89C19.2 13.24 18.08 14.58 16.96 15.93C16.64 16.32 16.26 16.33 15.91 15.98C15.47 15.54 15.03 15.1 14.58 14.65C14.35 14.42 14.32 14.42 14.09 14.65C13.13 15.61 12.17 16.57 11.2 17.54C11.07 17.67 10.93 17.8 10.78 17.93V17.91Z" fill="white"/>
<path d="M5.99998 18.74C6.20998 17.95 6.41998 17.16 6.61998 16.37C6.89998 15.29 7.17998 14.21 7.46998 13.13C7.54998 12.83 7.76998 12.65 8.04998 12.64C8.32998 12.64 8.56998 12.78 8.64998 13.04C8.68998 13.18 8.68998 13.34 8.64998 13.48C8.19998 15.22 7.74998 16.97 7.28998 18.71C7.14998 19.24 7.30998 19.52 7.83998 19.67C12.06 20.8 16.28 21.93 20.49 23.06C20.94 23.18 21.24 23 21.36 22.55C21.5 22.01 21.63 21.46 21.76 20.92C21.85 20.54 22.17 20.33 22.51 20.4C22.87 20.48 23.07 20.82 22.97 21.21C22.83 21.78 22.7 22.35 22.55 22.91C22.27 23.97 21.27 24.55 20.21 24.26C15.95 23.12 11.7 21.98 7.43998 20.84C6.66998 20.63 6.18998 20.13 6.00998 19.35C6.00998 19.33 5.98998 19.31 5.97998 19.28C5.97998 19.1 5.97998 18.92 5.97998 18.73L5.99998 18.74Z" fill="white"/>
<path d="M13.5 11.83C12.58 11.83 11.84 11.08 11.84 10.17C11.84 9.25 12.6 8.5 13.52 8.5C14.43 8.5 15.18 9.27 15.17 10.18C15.17 11.1 14.42 11.84 13.5 11.83ZM13.5 10.58C13.73 10.58 13.92 10.39 13.92 10.16C13.92 9.94 13.73 9.75 13.51 9.75C13.28 9.75 13.09 9.94 13.09 10.17C13.09 10.39 13.28 10.57 13.5 10.58Z" fill="white"/>
</g>
<defs>
<clipPath id="clip0_182_477">
<rect width="20" height="18.33" fill="white" transform="translate(6 6)"/>
</clipPath>
</defs>
</svg>
