<svg width="24" height="24" viewBox="0 0 24 24" fill="none" xmlns="http://www.w3.org/2000/svg">
<path d="M11.4204 2.00417C11.8104 2.00417 12.2004 2.00417 12.5904 2.00417C12.6404 2.01417 12.6904 2.03417 12.7404 2.03417C14.3104 2.14417 15.7804 2.59417 17.1204 3.41417C19.7004 5.00417 21.2904 7.29417 21.8504 10.2742C21.9204 10.6342 21.9504 11.0042 22.0004 11.3742V12.5842C21.9904 12.6442 21.9704 12.6942 21.9704 12.7542C21.8904 13.9642 21.6104 15.1242 21.0704 16.2042C19.3004 19.7642 16.4104 21.7042 12.4404 21.9842C10.8204 22.0942 9.26043 21.7842 7.80043 21.0642C4.23043 19.3042 2.29043 16.4142 2.02043 12.4442C1.89043 10.4842 2.37043 8.62417 3.38043 6.94417C4.96043 4.32417 7.27043 2.72417 10.2804 2.15417C10.6604 2.08417 11.0404 2.05417 11.4204 1.99417V2.00417ZM7.71043 12.3142C6.91043 12.2442 6.50043 12.6242 6.50043 13.3942C6.50043 13.9542 6.50043 14.5142 6.50043 15.0742C6.50043 15.3342 6.56043 15.5742 6.75043 15.7642C7.45043 16.4542 8.15043 17.1342 8.84043 17.8242C9.13043 18.1142 9.47043 18.2542 9.89043 18.2542C11.4904 18.2542 13.0904 18.2542 14.6904 18.2542C15.7004 18.2542 16.3004 17.6542 16.3004 16.6342C16.3004 14.1042 16.3004 11.5842 16.3104 9.05417C16.3104 8.97417 16.3104 8.89417 16.3004 8.82417C16.2604 8.53417 16.0204 8.31417 15.7404 8.28417C15.3104 8.24417 15.0004 8.53417 15.0004 8.99417C15.0004 9.75417 15.0004 10.5142 15.0004 11.2742C15.0004 11.3642 15.0004 11.4542 14.9704 11.5442C14.9304 11.7242 14.7704 11.8442 14.5904 11.8442C14.4004 11.8442 14.2304 11.7242 14.1904 11.5342C14.1704 11.4442 14.1704 11.3442 14.1704 11.2442C14.1704 9.70417 14.1704 8.16417 14.1704 6.61417C14.1704 6.53417 14.1704 6.44417 14.1604 6.36417C14.1204 5.99417 13.7804 5.73417 13.4104 5.79417C13.0404 5.85417 12.8404 6.11417 12.8404 6.55417C12.8404 8.01417 12.8404 9.48417 12.8404 10.9442C12.8404 11.0242 12.8404 11.1142 12.8304 11.1942C12.8004 11.4042 12.6404 11.5442 12.4304 11.5542C12.2104 11.5542 12.0404 11.4142 12.0104 11.2042C12.0004 11.1242 12.0104 11.0442 12.0104 10.9742C12.0104 9.27417 12.0104 7.57417 12.0104 5.87417C12.0104 5.42417 11.7304 5.11417 11.3504 5.10417C10.9704 5.10417 10.6904 5.41417 10.6904 5.86417C10.6904 7.65417 10.6904 9.44417 10.6904 11.2342C10.6904 11.3842 10.7204 11.4742 10.8904 11.5142C11.1104 11.5642 11.2304 11.7542 11.2004 11.9642C11.1704 12.1642 11.0004 12.2942 10.7804 12.2942C10.3004 12.2942 9.90043 11.9042 9.88043 11.3942C9.88043 11.2042 9.88043 11.0042 9.88043 10.8042C9.88043 9.60417 9.88043 8.40417 9.88043 7.21417C9.88043 6.85417 9.64043 6.59417 9.30043 6.57417C8.93043 6.54417 8.65043 6.75417 8.58043 7.11417C8.56043 7.20417 8.56043 7.30417 8.56043 7.40417C8.56043 9.80417 8.56043 12.1942 8.56043 14.5942C8.56043 14.9342 8.41043 15.1242 8.15043 15.1342C7.89043 15.1342 7.73043 14.9342 7.73043 14.5842C7.73043 14.2742 7.73043 13.9742 7.73043 13.6642C7.73043 13.2142 7.73043 12.7542 7.73043 12.2842L7.71043 12.3142Z" fill="#265B55"/>
</svg>
