<svg width="21" height="21" viewBox="0 0 21 21" fill="none" xmlns="http://www.w3.org/2000/svg">
<path d="M5.65709 16.8588L5.6571 16.8588L5.68977 16.8507L5.68978 16.8507L7.64456 16.362C7.66179 16.3577 7.67915 16.3534 7.69663 16.349C7.91069 16.296 8.14085 16.2389 8.35105 16.1199C8.56125 16.0009 8.7286 15.8329 8.88423 15.6766C8.89694 15.6639 8.90956 15.6512 8.92213 15.6386L14.7804 9.78033L14.8043 9.75642C15.038 9.52277 15.2525 9.3083 15.4116 9.11226C15.5844 8.89936 15.7465 8.64439 15.8068 8.31742C15.8455 8.10758 15.8455 7.89242 15.8068 7.68258C15.7465 7.35561 15.5844 7.10064 15.4116 6.88774C15.2525 6.69171 15.038 6.47725 14.8044 6.24361L14.7804 6.21967L14.2501 6.75L14.7804 6.21967L14.7565 6.19574C14.5228 5.96205 14.3084 5.74755 14.1123 5.58847C13.8994 5.41572 13.6445 5.25355 13.3175 5.19324C13.1077 5.15454 12.8925 5.15454 12.6827 5.19324C12.3557 5.25355 12.1007 5.41572 11.8878 5.58847C11.6918 5.74755 11.4773 5.96205 11.2437 6.19574L11.2198 6.21967L5.36147 12.078C5.3489 12.0905 5.33623 12.1031 5.32348 12.1158C5.16722 12.2715 4.99921 12.4388 4.8802 12.649L5.53063 13.0173L4.8802 12.649C4.76118 12.8592 4.70413 13.0894 4.65106 13.3035C4.64673 13.3209 4.64243 13.3383 4.63812 13.3555L4.14125 15.343C4.13864 15.3534 4.13596 15.3641 4.13324 15.3749C4.09541 15.5257 4.04904 15.7106 4.0334 15.8705C4.01572 16.0512 4.01414 16.4078 4.30323 16.6968C4.59233 16.9859 4.94883 16.9844 5.12954 16.9667C5.28949 16.951 5.47433 16.9047 5.62512 16.8668C5.63596 16.8641 5.64662 16.8614 5.65709 16.8588Z" stroke="#265B55" stroke-width="1.5"/>
<path d="M10.9167 6.75004L13.4167 5.08337L15.9167 7.58337L14.2501 10.0834L10.9167 6.75004Z" fill="#265B55"/>
</svg>
