<svg width="17" height="17" viewBox="0 0 17 17" fill="none" xmlns="http://www.w3.org/2000/svg">
<path fill-rule="evenodd" clip-rule="evenodd" d="M4.25 6.125C4.25 4.23938 4.25 3.29657 4.83579 2.71079C5.42157 2.125 6.36438 2.125 8.25 2.125H8.75C10.6356 2.125 11.5784 2.125 12.1642 2.71079C12.75 3.29657 12.75 4.23938 12.75 6.125V10.875C12.75 12.7606 12.75 13.7034 12.1642 14.2892C11.5784 14.875 10.6356 14.875 8.75 14.875H8.25C6.36438 14.875 5.42157 14.875 4.83579 14.2892C4.25 13.7034 4.25 12.7606 4.25 10.875V6.125ZM6.58333 3.54167C6.58333 3.26552 6.80719 3.04167 7.08333 3.04167H9.91667C10.1928 3.04167 10.4167 3.26552 10.4167 3.54167C10.4167 3.81781 10.1928 4.04167 9.91667 4.04167H7.08333C6.80719 4.04167 6.58333 3.81781 6.58333 3.54167ZM8.5 13.4583C8.8912 13.4583 9.20833 13.1412 9.20833 12.75C9.20833 12.3588 8.8912 12.0417 8.5 12.0417C8.1088 12.0417 7.79167 12.3588 7.79167 12.75C7.79167 13.1412 8.1088 13.4583 8.5 13.4583Z" fill="#222222"/>
</svg>
