<svg width="27" height="27" viewBox="0 0 27 27" fill="none" xmlns="http://www.w3.org/2000/svg">
<circle cx="13.5" cy="13.5" r="13.5" fill="#EBEDF0"/>
<rect width="19.8" height="19.8" transform="translate(3.59986 3.59998)" fill="#EBEDF0"/>
<path d="M6.07486 12.675V12.675C6.07486 13.1164 6.07486 13.337 6.10956 13.5209C6.26223 14.3298 6.895 14.9626 7.70396 15.1153C7.88779 15.15 8.10848 15.15 8.54986 15.15H9.10711C9.46349 15.15 9.64168 15.15 9.79588 15.2015C9.98844 15.2658 10.1569 15.3872 10.2788 15.5495C10.3764 15.6795 10.4327 15.8486 10.5454 16.1867L10.6124 16.3875C10.7899 16.9201 10.8787 17.1863 11.0689 17.3612C11.1273 17.4149 11.1918 17.4614 11.2612 17.4998C11.4872 17.625 11.7679 17.625 12.3293 17.625H14.6704C15.2318 17.625 15.5125 17.625 15.7386 17.4998C15.8079 17.4614 15.8725 17.4149 15.9308 17.3612C16.1211 17.1863 16.2098 16.9201 16.3874 16.3875L16.4543 16.1867C16.567 15.8486 16.6234 15.6795 16.721 15.5495C16.8429 15.3872 17.0113 15.2658 17.2038 15.2015C17.358 15.15 17.5362 15.15 17.8926 15.15H18.4499C18.8912 15.15 19.1119 15.15 19.2958 15.1153C20.1047 14.9626 20.7375 14.3298 20.8902 13.5209C20.9249 13.337 20.9249 13.1164 20.9249 12.675V12.675" stroke="#265B55" stroke-width="2"/>
<path d="M20.9249 18.925V8.07498C20.9249 6.97041 20.0294 6.07498 18.9249 6.07498H8.07486C6.97029 6.07498 6.07486 6.97041 6.07486 8.07498V18.925C6.07486 20.0296 6.97029 20.925 8.07486 20.925H18.9249C20.0294 20.925 20.9249 20.0296 20.9249 18.925Z" stroke="#265B55" stroke-width="2"/>
<path d="M10.6124 11.4375L13.4999 9.37497M13.4999 9.37497L16.3874 11.4375M13.4999 9.37497L13.4999 14.325" stroke="#265B55" stroke-width="2"/>
<circle cx="13.5" cy="13.5" r="13.5" fill="#7EB89E" fill-opacity="0.2"/>
</svg>
