<svg width="24" height="24" viewBox="0 0 24 24" fill="none" xmlns="http://www.w3.org/2000/svg">
<path fill-rule="evenodd" clip-rule="evenodd" d="M19.4562 5.30619L13.0524 2.56169C12.1252 2.16433 11.0757 2.16433 10.1485 2.56169L3.74465 5.30619C3.2929 5.49979 3 5.94399 3 6.43548V12.8893C3 15.2701 4.14974 17.5042 6.08702 18.888L10.1722 21.806C11.0265 22.4162 12.1743 22.4162 13.0287 21.806L17.1138 18.888C19.0511 17.5042 20.2008 15.2701 20.2008 12.8893V6.43548C20.2008 5.94399 19.9079 5.49979 19.4562 5.30619ZM16.0672 9.93613C16.4122 9.50487 16.3423 8.87558 15.911 8.53057C15.4797 8.18556 14.8504 8.25548 14.5054 8.68674L10.2889 13.9575L8.62163 12.2902C8.23111 11.8997 7.59794 11.8997 7.20742 12.2902C6.81689 12.6807 6.81689 13.3139 7.20742 13.7044L9.26967 15.7667C9.90183 16.3988 10.9431 16.3412 11.5016 15.6431L16.0672 9.93613Z" fill="#222222"/>
</svg>
