<svg width="19" height="19" viewBox="0 0 19 19" fill="none" xmlns="http://www.w3.org/2000/svg">
<path d="M12.5 16.25V15.125C12.5 13.8394 12.5 13.1965 12.2155 12.7218C12.0464 12.4397 11.8103 12.2036 11.5282 12.0345C11.0535 11.75 10.4106 11.75 9.125 11.75V11.75C7.83935 11.75 7.19653 11.75 6.72179 12.0345C6.43969 12.2036 6.20363 12.4397 6.03454 12.7218C5.75 13.1965 5.75 13.8394 5.75 15.125V16.25" stroke="white" stroke-width="1.5"/>
<path d="M5.75 6.5H9.5" stroke="white" stroke-width="1.5" stroke-linecap="round"/>
<path d="M2.75 8.75C2.75 5.92157 2.75 4.50736 3.62868 3.62868C4.50736 2.75 5.92157 2.75 8.75 2.75H12.4216C12.8303 2.75 13.0347 2.75 13.2185 2.82612C13.4022 2.90224 13.5468 3.04676 13.8358 3.33579L15.6642 5.16421C15.9532 5.45324 16.0978 5.59776 16.1739 5.78153C16.25 5.9653 16.25 6.16968 16.25 6.57843V10.25C16.25 13.0784 16.25 14.4926 15.3713 15.3713C14.4926 16.25 13.0784 16.25 10.25 16.25H8.75C5.92157 16.25 4.50736 16.25 3.62868 15.3713C2.75 14.4926 2.75 13.0784 2.75 10.25V8.75Z" stroke="white" stroke-width="1.5"/>
</svg>
