<svg width="16" height="10" viewBox="0 0 16 10" fill="none" xmlns="http://www.w3.org/2000/svg">
<path d="M15.85 4.34985C15.03 3.26985 14.08 2.31985 12.95 1.55985C11.2 0.399846 9.29 -0.160154 7.18 0.039846C6.09 0.139846 5.07 0.459846 4.1 0.949846C2.68 1.66985 1.51 2.68985 0.5 3.90985C0.31 4.13985 0.16 4.38985 0 4.63985V4.88985C0.05 4.97985 0.08 5.07985 0.14 5.15985C1.08 6.39985 2.18 7.46985 3.53 8.25985C5.16 9.21985 6.91 9.65985 8.8 9.47985C10.1 9.35985 11.3 8.93985 12.43 8.27985C13.79 7.47985 14.9 6.40985 15.85 5.16985C16.05 4.90985 16.05 4.61985 15.85 4.34985ZM8.11 8.11985C6.23 8.14985 4.67 6.68985 4.65 4.85985C4.62 2.97985 6.08 1.43985 7.91 1.39985C9.79 1.36985 11.35 2.82985 11.38 4.65985C11.41 6.52985 9.94 8.07985 8.12 8.11985H8.11Z" fill="#9FA2B4"/>
<path d="M8.03994 2.94998C7.02994 2.93998 6.18994 3.74998 6.18994 4.74998C6.18994 5.73998 6.97994 6.55998 7.96994 6.56998C8.97994 6.57998 9.80994 5.76998 9.80994 4.75998C9.80994 3.77998 9.01994 2.95998 8.03994 2.94998Z" fill="#9FA2B4"/>
</svg>
