<svg width="20" height="20" viewBox="0 0 20 20" fill="none" xmlns="http://www.w3.org/2000/svg">
<path d="M5.15697 16.3588L5.15698 16.3588L5.18965 16.3507L5.18966 16.3507L7.14443 15.862C7.16167 15.8577 7.17903 15.8534 7.1965 15.849C7.41057 15.796 7.64073 15.7389 7.85093 15.6199C8.06113 15.5009 8.22848 15.3329 8.38411 15.1766C8.39681 15.1639 8.40944 15.1512 8.422 15.1386L14.2803 9.28033L14.3042 9.25642C14.5379 9.02277 14.7524 8.8083 14.9115 8.61226C15.0842 8.39936 15.2464 8.14439 15.3067 7.81742C15.3454 7.60758 15.3454 7.39242 15.3067 7.18258C15.2464 6.85561 15.0842 6.60064 14.9115 6.38774C14.7524 6.19171 14.5379 5.97725 14.3042 5.74361L14.2803 5.71967L13.75 6.25L14.2803 5.71967L14.2564 5.69574C14.0227 5.46205 13.8083 5.24755 13.6122 5.08847C13.3993 4.91572 13.1443 4.75355 12.8174 4.69324C12.6075 4.65454 12.3924 4.65454 12.1825 4.69324C11.8556 4.75355 11.6006 4.91572 11.3877 5.08847C11.1917 5.24755 10.9772 5.46205 10.7436 5.69574L10.7196 5.71967L4.86134 11.578C4.84878 11.5905 4.83611 11.6031 4.82336 11.6158C4.6671 11.7715 4.49909 11.9388 4.38007 12.149L5.03051 12.5173L4.38007 12.149C4.26106 12.3592 4.204 12.5894 4.15094 12.8035C4.14661 12.8209 4.1423 12.8383 4.138 12.8555L3.64113 14.843C3.63852 14.8534 3.63584 14.8641 3.63312 14.8749C3.59529 15.0257 3.54892 15.2106 3.53327 15.3705C3.51559 15.5512 3.51402 15.9078 3.80311 16.1968C4.0922 16.4859 4.44871 16.4844 4.62942 16.4667C4.78936 16.451 4.97421 16.4047 5.125 16.3668C5.13584 16.3641 5.1465 16.3614 5.15697 16.3588Z" stroke="#265B55" stroke-width="1.5"/>
<path d="M10.4166 6.24992L12.9166 4.58325L15.4166 7.08325L13.75 9.58325L10.4166 6.24992Z" fill="#265B55"/>
</svg>
