<svg width="33" height="29" viewBox="0 0 33 29" fill="none" xmlns="http://www.w3.org/2000/svg">
<rect width="32.01" height="28.8977" rx="4" fill="#265B55"/>
<path d="M6.03 13.49C6.29 13.21 6.56 12.93 6.83 12.65C6.91 12.72 6.95 12.76 6.99 12.8C7.44 13.25 7.9 13.7 8.34 14.16C9.42 15.26 9.46 16.93 8.43 18.08C8.16 18.39 7.87 18.68 7.6 18.99C6.79 19.95 7.27 21.41 8.5 21.68C9.03 21.8 9.52 21.68 9.94 21.32C10.1 21.18 10.25 21.04 10.38 20.88C10.44 20.81 10.48 20.71 10.5 20.62C11.33 17.72 12.15 14.81 12.97 11.91C13.01 11.78 13.06 11.7 13.18 11.63C14.75 10.7 16.32 9.77 17.88 8.84C17.96 8.79 18.04 8.73 18.11 8.66C18.95 7.82 19.8 6.97 20.64 6.13C20.69 6.08 20.74 6.03 20.78 6C22.53 7.75 24.27 9.49 26.01 11.23C25.25 11.99 24.49 12.76 23.71 13.52C23.38 13.84 23.12 14.19 22.9 14.59C22.12 16.02 21.33 17.44 20.54 18.86C20.49 18.94 20.39 19.02 20.3 19.05C17.35 19.91 14.4 20.75 11.45 21.61C11.32 21.65 11.19 21.74 11.1 21.83C10.66 22.28 10.18 22.65 9.55 22.81C7.93 23.22 6.3 22.15 6.04 20.5C6.04 20.46 6.02 20.41 6 20.37C6 20.16 6 19.95 6 19.74C6.01 19.71 6.03 19.68 6.03 19.65C6.11 19.07 6.36 18.56 6.76 18.13C7 17.87 7.23 17.61 7.47 17.35C8.16 16.6 8.14 15.65 7.43 14.93C7.06 14.55 6.69 14.18 6.31 13.81C6.24 13.71 6.13 13.62 6.03 13.53C6.03 13.52 6.03 13.5 6.03 13.49ZM18.26 9.99C18.26 9.99 18.24 9.99 18.23 10C16.86 10.81 15.49 11.63 14.12 12.45C14.06 12.49 14 12.57 13.98 12.64C13.38 14.73 12.78 16.83 12.19 18.93C12.18 18.97 12.18 19.02 12.16 19.1C12.21 19.06 12.23 19.05 12.25 19.03C13.31 17.98 14.36 16.92 15.42 15.86C15.48 15.8 15.5 15.7 15.51 15.62C15.51 15.28 15.51 14.95 15.51 14.59H17.53V16.6C17.19 16.6 16.87 16.6 16.54 16.6C16.41 16.6 16.31 16.63 16.21 16.73C15.19 17.76 14.16 18.79 13.13 19.81C13.08 19.86 13.04 19.9 12.98 19.97C13.05 19.96 13.08 19.96 13.12 19.95C15.27 19.32 17.41 18.69 19.56 18.05C19.64 18.03 19.72 17.94 19.76 17.87C20.37 16.78 20.97 15.68 21.58 14.59C21.74 14.31 21.89 14.02 22.04 13.75C20.78 12.49 19.52 11.23 18.26 9.98V9.99ZM22.77 12.75C23.29 12.23 23.82 11.7 24.34 11.18C23.17 10.01 21.99 8.83 20.82 7.66C20.3 8.18 19.76 8.71 19.24 9.23C20.41 10.4 21.59 11.58 22.76 12.75H22.77Z" fill="white"/>
</svg>
